<svg height="340.16" viewBox="0 0 340.16 340.16" width="340.16" xmlns="http://www.w3.org/2000/svg"><g transform="matrix(.13333333 0 0 -.13333333 0 340.16)"><path d="m0 0h2551.18v2551.18h-2551.18z" fill="#e81d25"/><g fill="#fff"><path d="m634.727 2157.93v-34.54c0-63.96-20.454-115.78-61.418-155.45-40.938-39.67-94.032-59.49-158.621-59.49-69.106 0-126.672 22.39-172.071 67.18-45.429 45.41-67.816 100.43-67.816 165.05 0 65.22 22.387 120.24 67.179 165.67 45.403 45.41 101.063 67.79 167.579 67.79 83.804 0 156.718-40.94 195.117-104.26l-75.5-43.5c-21.121 36.47-67.156 62.06-120.25 62.06-42.867 0-78.043-14.09-105.551-42.24-27.512-27.51-40.937-62.68-40.937-105.52 0-42.24 14.054-77.41 41.57-104.92 28.144-27.51 65.25-40.94 111.312-40.94 68.45 0 114.512 31.98 130.477 85.07h-135.602v78.04z"/><path d="m766.922 2182.24c14.59 40.94 51.062 61.42 92.371 61.42v-92.13c-23.684 3.2-45.563-1.9-64.406-15.35-18.848-13.43-27.965-35.18-27.965-65.89v-152.89h-78.383v319.87h78.383z"/><path d="m1153.52 2107.4c-9.58 43.5-41.56 64.62-79.3 64.62-44.14 0-74.22-23.68-83.806-64.62zm-161.836-63.95c10.886-40.31 40.936-60.15 90.196-60.15 31.34 0 55.66 10.88 71.64 31.97l66.55-38.37c-31.34-45.41-78.04-68.45-139.46-68.45-53.09 0-95.297 16.02-127.301 48-31.977 31.97-47.969 72.27-47.969 120.87 0 48 15.992 88.3 47.336 120.28 31.344 32.61 72.284 48.6 121.544 48.6 46.69 0 85.7-15.99 115.78-48.6 30.71-32.64 46.03-72.28 46.03-120.28 0-10.86-1.26-21.75-3.19-33.87z"/><path d="m1444.62 1987.14c25.57 0 46.69 8.33 63.32 24.95 17.28 17.29 25.6 39.01 25.6 65.25 0 26.22-8.32 47.96-25.6 64.59-16.63 17.28-37.75 25.61-63.32 25.61-25.59 0-46.7-8.33-63.33-25.61-16.65-16.63-24.94-38.37-24.94-64.59 0-26.24 8.29-47.96 24.94-65.25 16.63-16.62 37.74-24.95 63.33-24.95m88.92 250.11h82.51v-319.82h-82.51v37.73c-24.95-31.34-59.49-46.7-104.28-46.7-42.84 0-79.31 15.99-110.02 48.6-30.08 32.65-45.43 72.95-45.43 120.28s15.35 87 45.43 119.61c30.71 32.64 67.18 49.26 110.02 49.26 44.79 0 79.33-15.35 104.28-46.69z"/><path d="m1886.68 2157.93h-72.28v-133.04c0-34.57 24.95-35.2 72.28-32.64v-74.84c-113.21-12.79-154.82 19.82-154.82 107.48v133.04h-55.63v79.32h55.63v64.61l82.54 24.94v-89.55h72.28z"/><path d="m400.605 1584.65c37.739 0 65.254 29.42 65.254 67.81 0 39.01-27.515 67.79-65.254 67.79h-78.671v-135.6zm0 218.14c42.868 0 79.313-14.72 108.754-43.5 29.414-28.78 44.137-64.62 44.137-106.83 0-42.23-14.723-78.04-44.137-106.85-29.441-28.78-65.886-43.47-108.754-43.47h-78.671v-147.15h-88.274v447.8z"/><path d="m613.66 1798.64h82.508v-443.65h-82.508z"/><path d="m938.621 1424.74c25.582 0 46.699 8.32 63.319 24.94 17.29 17.29 25.61 39.01 25.61 65.25 0 26.22-8.32 47.97-25.61 64.59-16.62 17.28-37.737 25.61-63.319 25.61-25.578 0-46.699-8.33-63.32-25.61-16.649-16.62-24.949-38.37-24.949-64.59 0-26.24 8.3-47.96 24.949-65.25 16.621-16.62 37.742-24.94 63.32-24.94m88.929 250.11h82.51v-319.83h-82.51v37.74c-24.95-31.35-59.487-46.7-104.284-46.7-42.836 0-79.313 15.98-110.02 48.6-30.074 32.64-45.43 72.94-45.43 120.27 0 47.34 15.356 87 45.43 119.62 30.707 32.64 67.184 49.26 110.02 49.26 44.797 0 79.334-15.36 104.284-46.7z"/><path d="m1229.08 1394.67c-31.98 32.61-47.97 72.28-47.97 120.25 0 47.99 15.99 87.66 47.97 120.27 32.63 32.61 72.94 48.6 120.91 48.6 62.05 0 117.04-31.98 143.29-82.51l-71.01-41.57c-12.8 26.22-40.31 42.87-72.94 42.87-49.24 0-85.71-36.47-85.71-87.66 0-24.96 8.32-46.04 24.31-62.69 16-15.99 36.47-24.29 61.4-24.29 33.27 0 60.78 15.99 73.57 42.21l71.65-40.94c-28.14-50.53-82.51-83.17-144.56-83.17-47.97 0-88.28 16.01-120.91 48.63"/><path d="m1788.19 1544.99c-9.59 43.51-41.57 64.62-79.3 64.62-44.16 0-74.21-23.68-83.81-64.62zm-161.84-63.96c10.89-40.3 40.93-60.14 90.2-60.14 31.34 0 55.66 10.89 71.64 31.98l66.55-38.38c-31.34-45.4-78.04-68.45-139.46-68.45-53.09 0-95.3 16.01-127.3 48-31.98 31.97-47.97 72.28-47.97 120.88 0 47.99 15.99 88.29 47.33 120.27 31.34 32.61 72.28 48.6 121.55 48.6 46.7 0 85.7-15.99 115.78-48.6 30.7-32.64 46.03-72.28 46.03-120.27 0-10.86-1.27-21.75-3.19-33.89z"/><path d="m504.234 1218.01v-80.22h-120.91v-345.2h-88.269v345.2h-120.25v80.22z"/><path d="m641.746 864.238c24.949 0 45.43 8.332 62.051 24.953 16.629 16.618 24.953 37.739 24.953 63.321 0 25.578-8.324 46.699-24.953 63.318-16.621 16.65-37.102 24.95-62.051 24.95-24.945 0-45.43-8.3-62.051-24.95-15.988-16.619-24.316-37.74-24.316-63.318 0-25.582 8.328-46.703 24.316-63.321 16.621-16.621 37.106-24.953 62.051-24.953m0-80.609c-47.332 0-87.637 16-120.246 48.633-32.637 32.609-48.629 72.91-48.629 120.25 0 47.328 15.992 86.998 48.629 119.618 32.609 32.63 72.914 49.26 120.246 49.26 47.336 0 87.637-16.63 120.25-49.26 32.637-32.62 49.262-72.29 49.262-119.618 0-47.34-16.625-87.641-49.262-120.25-32.613-32.633-72.914-48.633-120.25-48.633"/><path d="m312.27 204.02-125.372 447.781h92.758l85.711-332 93.399 332h75.476l94.028-332 85.71 332h92.762l-125.375-447.781h-100.426l-84.437 295.55-83.805-295.55z"/><path d="m967.996 275.672c24.949 0 45.434 8.316 62.054 24.949 16.62 16.617 24.95 37.738 24.95 63.32 0 25.579-8.33 46.7-24.95 63.321-16.62 16.648-37.105 24.957-62.054 24.957s-45.43-8.309-62.055-24.957c-15.984-16.621-24.312-37.742-24.312-63.321 0-25.582 8.328-46.703 24.312-63.32 16.625-16.633 37.106-24.949 62.055-24.949m0-80.602c-47.332 0-87.637 15.981-120.246 48.621-32.637 32.618-48.629 72.918-48.629 120.25 0 47.34 15.992 87.008 48.629 119.61 32.609 32.64 72.914 49.269 120.246 49.269 47.334 0 87.634-16.629 120.254-49.269 32.63-32.602 49.25-72.27 49.25-119.61 0-47.332-16.62-87.632-49.25-120.25-32.62-32.64-72.92-48.621-120.254-48.621"/><path d="m1278.28 468.859c15.35 40.93 53.73 61.411 97.23 61.411v-92.129c-24.95 3.211-47.97-1.903-67.82-15.352-19.82-13.43-29.41-35.168-29.41-65.891v-152.878h-82.51v319.859h82.51z"/><path d="m1731.19 204.02h-95.96l-116.41 145.199v-145.199h-82.51v447.781h82.51v-268.672l110.02 140.73h98.52l-128.57-157.988z"/><path d="m1833.63 265.578c8.15 0 12.38 3.602 12.38 10.41v.352c0 7.48-4.56 10.09-12.38 10.09h-9.11v-20.852zm-24.75 32.91h25.07c16.63 0 27.36-6.847 27.36-21.488v-.34c0-10.762-6.16-16.629-14.65-19.219l18.9-30.312h-16.28l-17.29 27.691h-7.47v-27.691h-15.64zm84.06-36.476c0 35.5-24.79 60.258-59.31 60.258-34.54 0-59.3-25.079-59.3-60.598 0-35.832 26.06-59.934 59.3-59.934 33.54 0 59.31 24.75 59.31 60.274m-131.64-.34c0 40.066 31.92 72.328 72.33 72.328 41.05 0 72.32-31.922 72.32-71.988 0-40.75-31.94-72.012-72.32-72.012-40.09 0-72.33 30.949-72.33 71.672"/></g></g></svg>